<svg width="595" height="842" viewBox="0 0 595 842" fill="none" xmlns="http://www.w3.org/2000/svg">
<g filter="url(#filter0_n_209_84)">
<rect width="595" height="842" rx="8" fill="#F7F3E6"/>
<circle cx="44" cy="38" r="12" fill="#DEDCCF"/>
<circle cx="44" cy="97" r="12" fill="#DEDCCF"/>
<circle cx="44" cy="156" r="12" fill="#DEDCCF"/>
<circle cx="44" cy="215" r="12" fill="#DEDCCF"/>
<circle cx="44" cy="274" r="12" fill="#DEDCCF"/>
<circle cx="44" cy="333" r="12" fill="#DEDCCF"/>
<circle cx="44" cy="392" r="12" fill="#DEDCCF"/>
<circle cx="44" cy="451" r="12" fill="#DEDCCF"/>
<circle cx="44" cy="510" r="12" fill="#DEDCCF"/>
<circle cx="44" cy="569" r="12" fill="#DEDCCF"/>
<circle cx="44" cy="628" r="12" fill="#DEDCCF"/>
<circle cx="44" cy="687" r="12" fill="#DEDCCF"/>
<circle cx="44" cy="746" r="12" fill="#DEDCCF"/>
<circle cx="44" cy="805" r="12" fill="#DEDCCF"/>
<path d="M120.864 62.728H138.216V69.352C139.44 65.752 141.816 62.008 148.944 62.008C155.64 62.008 160.104 65.32 160.104 74.032V95.704H164.136V97H143.76V95.704H146.712V72.304C146.712 66.184 145.848 65.464 144.048 65.464C141.024 65.464 138.216 70 138.216 75.832V95.704H141.312V97H120.864V95.704H124.824V64.024H120.864V62.728ZM186.903 82.816V76.696C186.903 68.92 186.687 63.304 182.655 63.304C178.263 63.304 178.047 68.92 178.047 77.056V82.672C178.047 91.024 178.191 96.424 182.583 96.424C186.687 96.424 186.903 92.176 186.903 82.816ZM164.223 80.008C164.223 68.2 171.279 62.008 182.871 62.008C194.967 62.008 200.727 67.696 200.727 79.36C200.727 91.168 195.255 97.72 182.439 97.72C170.343 97.72 164.223 91.24 164.223 80.008ZM204.901 86.704V64.024H200.941V62.728H204.901V53.44L218.293 50.128V62.728H227.653V64.024H218.293V88.288C218.293 92.536 218.941 94.84 221.461 94.84C224.917 94.84 227.077 91.672 227.725 86.776L228.949 86.92C228.301 92.536 225.925 97.72 217.141 97.72C210.013 97.72 204.901 95.632 204.901 86.704ZM228.557 79.936C228.557 67.48 237.053 62.008 247.061 62.008C258.365 62.008 263.189 67.696 262.757 78.424H242.453V81.232C242.453 89.728 243.965 95.488 250.949 95.488C256.277 95.488 259.877 92.104 261.461 86.56L262.757 86.776C261.101 92.968 257.357 97.72 247.133 97.72C234.317 97.72 228.557 90.376 228.557 79.936ZM242.525 76.984H249.941V73.456C249.941 65.896 249.365 63.376 246.413 63.376C243.893 63.376 242.525 65.824 242.525 73.456V76.984ZM264.835 97.72V84.832H265.699C268.363 93.616 272.755 96.136 278.659 96.136C283.987 96.136 286.003 94.192 286.003 91.456C286.003 88.216 282.475 87.496 277.003 85.984C271.243 84.4 264.835 82.168 264.835 74.176C264.835 66.832 269.875 62.008 277.507 62.008C280.675 62.008 282.835 62.8 284.779 63.664C285.643 64.024 285.931 64.24 286.795 64.24C287.875 64.24 288.379 63.664 289.315 61.864H290.107V72.88H289.243C286.651 66.256 282.979 63.52 277.867 63.52C273.115 63.52 271.171 65.464 271.171 67.696C271.171 71.008 275.491 71.8 280.243 73.096C285.931 74.608 292.267 76.912 292.267 85.408C292.267 93.616 286.939 97.72 278.803 97.72C275.347 97.72 272.899 97 270.163 95.632C269.731 95.344 269.083 95.056 268.795 95.056C267.859 95.056 266.851 95.704 265.699 97.72H264.835Z" fill="black" fill-opacity="0.9"/>
</g>
<defs>
<filter id="filter0_n_209_84" x="0" y="0" width="595" height="842" filterUnits="userSpaceOnUse" color-interpolation-filters="sRGB">
<feFlood flood-opacity="0" result="BackgroundImageFix"/>
<feBlend mode="normal" in="SourceGraphic" in2="BackgroundImageFix" result="shape"/>
<feTurbulence type="fractalNoise" baseFrequency="2 2" stitchTiles="stitch" numOctaves="3" result="noise" seed="2408" />
<feColorMatrix in="noise" type="luminanceToAlpha" result="alphaNoise" />
<feComponentTransfer in="alphaNoise" result="coloredNoise1">
<feFuncA type="discrete" tableValues="0 0 0 0 0 0 0 0 0 0 0 0 0 1 1 1 1 1 1 1 1 1 1 1 1 1 1 1 1 1 1 1 1 1 1 1 0 0 0 0 0 0 0 0 0 0 0 0 0 0 0 0 0 0 0 0 0 0 0 0 0 0 0 0 0 0 0 0 0 0 0 0 0 0 0 0 0 0 0 0 0 0 0 0 0 0 0 0 0 0 0 0 0 0 0 0 0 0 0 0 "/>
</feComponentTransfer>
<feComposite operator="in" in2="shape" in="coloredNoise1" result="noise1Clipped" />
<feFlood flood-color="#E0DED1" result="color1Flood" />
<feComposite operator="in" in2="noise1Clipped" in="color1Flood" result="color1" />
<feMerge result="effect1_noise_209_84">
<feMergeNode in="shape" />
<feMergeNode in="color1" />
</feMerge>
</filter>
</defs>
</svg>
