<svg width="595" height="842" viewBox="0 0 595 842" fill="none" xmlns="http://www.w3.org/2000/svg">
<g filter="url(#filter0_n_213_133)">
<rect width="595" height="842" rx="8" fill="#F7F3E6"/>
<circle cx="44" cy="38" r="12" fill="#DEDCCF"/>
<circle cx="44" cy="97" r="12" fill="#DEDCCF"/>
<circle cx="44" cy="156" r="12" fill="#DEDCCF"/>
<circle cx="44" cy="215" r="12" fill="#DEDCCF"/>
<circle cx="44" cy="274" r="12" fill="#DEDCCF"/>
<circle cx="44" cy="333" r="12" fill="#DEDCCF"/>
<circle cx="44" cy="392" r="12" fill="#DEDCCF"/>
<circle cx="44" cy="451" r="12" fill="#DEDCCF"/>
<circle cx="44" cy="510" r="12" fill="#DEDCCF"/>
<circle cx="44" cy="569" r="12" fill="#DEDCCF"/>
<circle cx="44" cy="628" r="12" fill="#DEDCCF"/>
<circle cx="44" cy="687" r="12" fill="#DEDCCF"/>
<circle cx="44" cy="746" r="12" fill="#DEDCCF"/>
<circle cx="44" cy="805" r="12" fill="#DEDCCF"/>
</g>
<path d="M84.864 61.728H102.216V68.352C103.44 64.752 105.816 61.008 112.944 61.008C119.64 61.008 124.104 64.32 124.104 73.032V94.704H128.136V96H107.76V94.704H110.712V71.304C110.712 65.184 109.848 64.464 108.048 64.464C105.024 64.464 102.216 69 102.216 74.832V94.704H105.312V96H84.864V94.704H88.824V63.024H84.864V61.728ZM150.903 81.816V75.696C150.903 67.92 150.687 62.304 146.655 62.304C142.263 62.304 142.047 67.92 142.047 76.056V81.672C142.047 90.024 142.191 95.424 146.583 95.424C150.687 95.424 150.903 91.176 150.903 81.816ZM128.223 79.008C128.223 67.2 135.279 61.008 146.871 61.008C158.967 61.008 164.727 66.696 164.727 78.36C164.727 90.168 159.255 96.72 146.439 96.72C134.343 96.72 128.223 90.24 128.223 79.008ZM168.901 85.704V63.024H164.941V61.728H168.901V52.44L182.293 49.128V61.728H191.653V63.024H182.293V87.288C182.293 91.536 182.941 93.84 185.461 93.84C188.917 93.84 191.077 90.672 191.725 85.776L192.949 85.92C192.301 91.536 189.925 96.72 181.141 96.72C174.013 96.72 168.901 94.632 168.901 85.704ZM192.557 78.936C192.557 66.48 201.053 61.008 211.061 61.008C222.365 61.008 227.189 66.696 226.757 77.424H206.453V80.232C206.453 88.728 207.965 94.488 214.949 94.488C220.277 94.488 223.877 91.104 225.461 85.56L226.757 85.776C225.101 91.968 221.357 96.72 211.133 96.72C198.317 96.72 192.557 89.376 192.557 78.936ZM206.525 75.984H213.941V72.456C213.941 64.896 213.365 62.376 210.413 62.376C207.893 62.376 206.525 64.824 206.525 72.456V75.984ZM228.835 96.72V83.832H229.699C232.363 92.616 236.755 95.136 242.659 95.136C247.987 95.136 250.003 93.192 250.003 90.456C250.003 87.216 246.475 86.496 241.003 84.984C235.243 83.4 228.835 81.168 228.835 73.176C228.835 65.832 233.875 61.008 241.507 61.008C244.675 61.008 246.835 61.8 248.779 62.664C249.643 63.024 249.931 63.24 250.795 63.24C251.875 63.24 252.379 62.664 253.315 60.864H254.107V71.88H253.243C250.651 65.256 246.979 62.52 241.867 62.52C237.115 62.52 235.171 64.464 235.171 66.696C235.171 70.008 239.491 70.8 244.243 72.096C249.931 73.608 256.267 75.912 256.267 84.408C256.267 92.616 250.939 96.72 242.803 96.72C239.347 96.72 236.899 96 234.163 94.632C233.731 94.344 233.083 94.056 232.795 94.056C231.859 94.056 230.851 94.704 229.699 96.72H228.835Z" fill="black" fill-opacity="0.9"/>
<defs>
<filter id="filter0_n_213_133" x="0" y="0" width="595" height="842" filterUnits="userSpaceOnUse" color-interpolation-filters="sRGB">
<feFlood flood-opacity="0" result="BackgroundImageFix"/>
<feBlend mode="normal" in="SourceGraphic" in2="BackgroundImageFix" result="shape"/>
<feTurbulence type="fractalNoise" baseFrequency="2 2" stitchTiles="stitch" numOctaves="3" result="noise" seed="2408" />
<feColorMatrix in="noise" type="luminanceToAlpha" result="alphaNoise" />
<feComponentTransfer in="alphaNoise" result="coloredNoise1">
<feFuncA type="discrete" tableValues="0 0 0 0 0 0 0 0 0 0 0 0 0 1 1 1 1 1 1 1 1 1 1 1 1 1 1 1 1 1 1 1 1 1 1 1 0 0 0 0 0 0 0 0 0 0 0 0 0 0 0 0 0 0 0 0 0 0 0 0 0 0 0 0 0 0 0 0 0 0 0 0 0 0 0 0 0 0 0 0 0 0 0 0 0 0 0 0 0 0 0 0 0 0 0 0 0 0 0 0 "/>
</feComponentTransfer>
<feComposite operator="in" in2="shape" in="coloredNoise1" result="noise1Clipped" />
<feFlood flood-color="#E0DED1" result="color1Flood" />
<feComposite operator="in" in2="noise1Clipped" in="color1Flood" result="color1" />
<feMerge result="effect1_noise_213_133">
<feMergeNode in="shape" />
<feMergeNode in="color1" />
</feMerge>
</filter>
</defs>
</svg>
